<?xml version="1.0" encoding="us-ascii" standalone="no"?>
<svg xmlns="http://www.w3.org/2000/svg" contentStyleType="text/css"
     height="704px" preserveAspectRatio="none" style="width:257px;height:704px;background:#FFFFFF;" version="1.1"
     viewBox="0 0 257 704" width="257px" zoomAndPan="magnify">
    <defs/>
    <g>
        <text fill="#000000" font-family="sans-serif" font-size="12" lengthAdjust="spacing" textLength="4" x="98"
              y="16.6016">&#160;
        </text>
        <text fill="#000000" font-family="sans-serif" font-size="12" lengthAdjust="spacing" textLength="4" x="98"
              y="130.7344">&#160;
        </text>
        <text fill="#000000" font-family="sans-serif" font-size="12" lengthAdjust="spacing" textLength="38" x="64"
              y="247.8223">unsafe
        </text>
        <text fill="#000000" font-family="sans-serif" font-size="12" lengthAdjust="spacing" textLength="97" x="5"
              y="261.9551">192.168.0.x/24
        </text>
        <text fill="#000000" font-family="sans-serif" font-size="12" lengthAdjust="spacing" textLength="43" x="59"
              y="364.9102">internal
        </text>
        <text fill="#000000" font-family="sans-serif" font-size="12" lengthAdjust="spacing" textLength="97" x="5"
              y="379.043">192.168.1.x/24
        </text>
        <text fill="#000000" font-family="sans-serif" font-size="12" lengthAdjust="spacing" textLength="4" x="98"
              y="481.998">&#160;
        </text>
        <text fill="#000000" font-family="sans-serif" font-size="12" lengthAdjust="spacing" textLength="39" x="63"
              y="599.0859">zigbee
        </text>
        <rect fill="#FF0000" height="5" style="stroke:#181818;stroke-width:1.0;" width="142" x="107" y="240.7871"/>
        <rect fill="#008000" height="5" style="stroke:#181818;stroke-width:1.0;" width="142" x="107" y="357.875"/>
        <rect fill="#00FFFF" height="5" style="stroke:#181818;stroke-width:1.0;" width="142" x="107" y="592.0508"/>
        <path d="M178,88.6992 L178,123.6992 " fill="none" style="stroke:#181818;stroke-width:1.0;"/>
        <path d="M178,123.6992 L178,165.1768 " fill="none" style="stroke:#181818;stroke-width:1.0;"/>
        <path d="M176,199.3096 L176,240.7871 " fill="none" style="stroke:#181818;stroke-width:1.0;"/>
        <text fill="#000000" font-family="sans-serif" font-size="11" lengthAdjust="spacing" textLength="10" x="171"
              y="224.2056">.1
        </text>
        <path d="M180,245.7871 L180,282.2646 " fill="none" style="stroke:#181818;stroke-width:1.0;"/>
        <path d="M180,316.3975 L180,357.875 " fill="none" style="stroke:#181818;stroke-width:1.0;"/>
        <text fill="#000000" font-family="sans-serif" font-size="11" lengthAdjust="spacing" textLength="10" x="175"
              y="341.2935">.1
        </text>
        <path d="M176,362.875 L176,399.3525 " fill="none" style="stroke:#181818;stroke-width:1.0;"/>
        <text fill="#000000" font-family="sans-serif" font-size="11" lengthAdjust="spacing" textLength="24" x="164"
              y="382.771">.133
        </text>
        <path d="M178,433.4854 L178,474.9629 " fill="none" style="stroke:#181818;stroke-width:1.0;"/>
        <path d="M178,474.9629 L178,516.4404 " fill="none" style="stroke:#181818;stroke-width:1.0;"/>
        <text fill="#000000" font-family="sans-serif" font-size="11" lengthAdjust="spacing" textLength="20" x="168"
              y="499.8589">USB
        </text>
        <path d="M180,550.5732 L180,592.0508 " fill="none" style="stroke:#181818;stroke-width:1.0;"/>
        <path d="M176,597.0508 L176,627.0508 " fill="none" style="stroke:#181818;stroke-width:1.0;"/>
        <path d="M150.7973,53.8175 C155.5809,47.5856 160.4418,47.377 165.3258,53.7014 C168.5662,45.1851 175.308,45.0349 180.1209,52.2196 C185.4476,46.0112 190.1414,46.4647 193.7179,53.9566 C198.6252,47.3536 203.5583,46.5088 207.925,54.4835 C215.3599,55.6523 217.0409,62.2421 212.28,67.4934 C217.0027,73.1615 216.5037,79.0582 208.726,81.5703 C204.6815,87.9186 198.2546,88.9914 193.796,82.035 C189.2701,89.8188 184.478,89.7107 178.3242,83.8858 C173.5016,90.1061 168.0418,90.7544 164.367,82.7588 C159.8748,89.4941 154.9077,89.9639 150.373,82.8015 C141.4362,82.4393 138.3142,76.4101 142.8033,68.793 C136.7769,60.4289 142.4568,54.5125 150.7973,53.8175 "
              fill="#F1F1F1" style="stroke:#181818;stroke-width:0.5;"/>
        <text fill="#000000" font-family="sans-serif" font-size="12" lengthAdjust="spacing" textLength="44" x="156"
              y="71.168">internet
        </text>
        <rect fill="#F1F1F1" height="34.1328" style="stroke:#181818;stroke-width:0.5;" width="78" x="139" y="165.1768"/>
        <text fill="#000000" font-family="sans-serif" font-size="12" lengthAdjust="spacing" textLength="58" x="149"
              y="186.7783">isp_router
        </text>
        <rect fill="#F1F1F1" height="34.1328" style="stroke:#181818;stroke-width:0.5;" width="93" x="131.5"
              y="282.2646"/>
        <text fill="#000000" font-family="sans-serif" font-size="12" lengthAdjust="spacing" textLength="73" x="141.5"
              y="303.8662">home_router
        </text>
        <rect fill="#F1F1F1" height="34.1328" style="stroke:#181818;stroke-width:0.5;" width="84" x="136" y="399.3525"/>
        <text fill="#000000" font-family="sans-serif" font-size="12" lengthAdjust="spacing" textLength="64" x="146"
              y="420.9541">j8puk8s01
        </text>
        <rect fill="#F1F1F1" height="34.1328" style="stroke:#181818;stroke-width:0.5;" width="112" x="122"
              y="516.4404"/>
        <text fill="#000000" font-family="sans-serif" font-size="12" lengthAdjust="spacing" textLength="92" x="132"
              y="538.042">zigbee_gateway
        </text>
        <rect fill="#F1F1F1" height="34.1328" style="stroke:#181818;stroke-width:0.5;" width="104" x="126"
              y="627.0508"/>
        <text fill="#000000" font-family="sans-serif" font-size="12" lengthAdjust="spacing" textLength="84" x="136"
              y="648.6523">electrovalve01
        </text><!--SRC=[TP31Ri8m38RFoLDOlTCrC4tTWSjUOUA49kGrNYc4f2GD7Knzzxb3g2tRZlPl_zzlsrPNMCAN59Ljo5jgO0rXYpN14WhZeeQtaJQRGHNgZNUH6r8AxhNExo7QW1_KsmZKsbC8l9wevtcgdl8qIpyVvey9YuKpphFaIVEs6BnWFTfBLS9GiNK7kg54Dw9Tuw3vZwT-yKfFPENKyo_aBg_ZFW-PkXCNYrxkCmmJ_8jBLRuJRKfigCMp5DDwuh5wVM6BuORhwCy5jv1uZCWb6IeQxqveJfGfRjnJEjd9Rm00]-->
    </g>
</svg>
